<?xml version="1.0" encoding="utf-8"?>
<!-- Generator: Adobe Illustrator 19.0.0, SVG Export Plug-In . SVG Version: 6.00 Build 0)  -->
<svg version="1.1" id="layer" xmlns="http://www.w3.org/2000/svg" xmlns:xlink="http://www.w3.org/1999/xlink" x="0px" y="0px"
	 viewBox="-153 -46 652 652" style="enable-background:new -153 -46 652 652;" xml:space="preserve">
<style type="text/css">
	.st0{fill:#231815;}
	.st1{fill:#656464;}
	.st2{fill:#EF8200;}
	.st3{fill:#D70C1E;}
</style>
<g>
	<g>
		<g>
			<g>
				<path class="st0" d="M424.2,285.3h-10.8v-32.3c0-9.5-4.2-16-15.4-16c-13.5,0-17.5,10.9-17.5,13.7c0,3.6,0,34.6,0,34.6h-11v-77
					h11v28h0.2c0,0,5.4-8.8,19.5-8.8c13.5,0,24.1,7.5,24.1,22V285.3"/>
				<path class="st1" d="M65.5,340.8c-2.3,1.1-5.5,1.3-8.3,1.3c-3.3,0-6.7-0.2-10.5-0.4V338c3.6,0.4,7.3,0.6,10.2,0.6
					c2.4,0,4.4-0.2,5.8-0.5c2.3-0.7,2.9-2.1,2.9-3.8c0-1.9-0.7-3.1-2.9-3.8c-2.1-0.6-4-0.9-6.7-1.3c-6.3-1.1-9.4-2.8-9.4-7.8
					c0-2.7,0.9-5.4,4.1-6.9c2.3-1.1,5.4-1.3,7.9-1.3c2.9,0,6,0.2,9.3,0.5v3.6c-3.3-0.4-6.6-0.6-9.4-0.6c-1.9,0-3.7,0.2-5.1,0.5
					c-2.2,0.6-2.8,1.9-2.8,3.6c0,1.8,0.6,3,2.8,3.6c1.9,0.6,4,0.9,6.4,1.3c6.4,1,9.8,2.8,9.8,8.2C69.7,336.6,68.7,339.3,65.5,340.8"
					/>
				<path class="st1" d="M112.7,339.3c-3.2,2.2-7.5,2.9-12.5,2.9c-5.3,0-9.5-0.7-12.7-2.9c-3.6-2.5-5-6.7-5-11.7c0-5,1.4-9.1,5-11.7
					c3.2-2.2,7.5-2.9,12.5-2.9c5.3,0,9.5,0.7,12.7,2.9c3.6,2.5,5,6.7,5,11.7C117.7,332.7,116.3,336.8,112.7,339.3 M100.2,316.7
					c-9.3,0-13.3,2.7-13.3,10.8c0,7.8,3.8,11.1,13.1,11.1c9.3,0,13.3-2.7,13.3-10.8C113.3,320.1,109.5,316.7,100.2,316.7z"/>
				<polyline class="st1" points="136.6,330.5 136.6,341.6 132.3,341.6 132.3,313.7 154,313.7 154,317.3 136.6,317.3 136.6,327 
					152.3,327 152.3,330.5 136.6,330.5 				"/>
				<polyline class="st1" points="177.9,341.6 177.9,317.2 165.5,317.2 165.5,313.7 194.5,313.7 194.5,317.2 182.1,317.2 
					182.1,341.6 177.9,341.6 				"/>
				<polyline class="st1" points="237.8,341.6 229,319.2 228.8,319.2 220.2,341.6 215.6,341.6 204.4,313.7 209,313.7 217.9,336.7 
					218.1,336.7 226.8,313.7 231.4,313.7 240.1,336.7 240.3,336.7 249.1,313.7 253.6,313.7 242.4,341.6 237.8,341.6 				"/>
				<path class="st1" d="M287.9,341.6l-3.9-7.5h-16.6l-3.8,7.5h-4.6l14.5-28h4.7l14.5,28H287.9 M275.8,317.8h-0.2l-6.6,12.9h13.3
					L275.8,317.8z"/>
				<path class="st1" d="M327.1,341.6l-8.3-10.7c-0.9,0.1-1.8,0.1-2.7,0.1h-6.2v10.6h-4.2v-28h11.1c5.5,0,9.1,0.2,11.8,2.2
					c1.9,1.4,2.8,3.5,2.8,6.4c0,2.7-0.7,4.7-2.7,6.2c-1.2,1.1-2.9,1.7-5,2l8.7,11.1H327.1 M317.1,317.1h-7.2v10.6h7.2
					c6.4,0,9.8-0.7,9.8-5.4C326.9,317.5,323,317.1,317.1,317.1z"/>
				<polyline class="st1" points="347.4,341.6 347.4,313.7 368.3,313.7 368.3,317.2 351.6,317.2 351.6,325.6 367.1,325.6 367.1,329 
					351.6,329 351.6,338 369,338 369,341.6 347.4,341.6 				"/>
				<path class="st2" d="M-14.5,325.5c-0.8,0.6-1.9,1.2-2.8,1.7l-0.3,0.2l0.3,0c18.2,5,36.2,4.8,39.6-6.5
					c4.5-14.6-24.4-30.3-38.1-37.8c-2.9-1.6-4.2-0.6-2.3,1.5C-9.5,294.6,2.8,314.1-14.5,325.5"/>
				<path class="st3" d="M-17.5,327.4c0,0-22.9,14.4-63.3,14.4c-15.6,0-28.8-2.4-34.4-7.9c-5.9-5.8-9-15.5-9-24.4
					c0-7.7,3.2-14.1,9.8-14.1C-97.4,295.4-44.4,322.4-17.5,327.4"/>
				<path class="st2" d="M-93.8,244c0.8-0.6,1.9-1.2,2.8-1.7l0.3-0.2l-0.3,0c-18.2-5-36.2-4.8-39.6,6.5
					c-4.5,14.6,24.4,30.3,38.1,37.8c2.9,1.6,4.2,0.6,2.3-1.5C-98.8,275-111.1,255.5-93.8,244"/>
				<path class="st3" d="M-90.7,242.1c0,0,22.9-14.4,63.3-14.4c15.6,0,28.8,2.4,34.4,7.9c5.9,5.8,9,15.5,9,24.4
					c0,7.7-3.2,14.1-9.8,14.1C-10.9,274.2-63.9,247.2-90.7,242.1"/>
				<path class="st0" d="M206,237.2c-10.5,0-19.8,6-19.8,19c0,13,8.1,19.6,19.7,19.6c6,0,18.8-2.5,18.8-19.3
					C224.7,239.5,212,237.2,206,237.2 M206.6,285.3c-13.6,0-20.4-8.7-20.4-8.7v24h-10.5v-72.2h9.9l0.6,7.1c0,0,6.6-7.8,20.2-7.8
					c12,0,29.3,6.1,29.3,28.6C235.7,278.8,220.2,285.3,206.6,285.3z"/>
				<path class="st0" d="M287.6,256.4c0,15.5,12.7,19.3,18.8,19.3c11.5,0,19.7-6.5,19.7-19.6c0-13-9.3-19-19.8-19
					C300.3,237.2,287.6,240.7,287.6,256.4 M276.6,256.3c0-21.4,17.3-28.6,29.3-28.6c13.6,0,20.2,7.8,20.2,7.8l0.6-7.1h9.9v56.9h-9.9
					l-0.6-7.5c0,0-6.8,7.5-20.4,7.5C292.1,285.3,276.6,277.4,276.6,256.3z"/>
				<path class="st0" d="M277.4,238.2v-9.6c-10.7-1-18.3,1.6-24.1,7.7l-0.6-7.8h-10.3v56.9h10.9v-29.5
					C253.2,247.7,259.9,237.2,277.4,238.2"/>
				<path class="st0" d="M80.1,251.4c-10.9-2-21.7-3.3-21.7-8.4c0-3.3,3.3-6.2,12.9-6.2c7.1,0,15.3,1.6,17.5,6.7l10.1-4.2
					c-3.9-7.7-15.3-11.5-28.4-11.5c-11.5,0-23.8,4.3-23.8,15.9c0,10.1,9.1,13.2,24.2,16c10.1,1.9,19.4,2.9,19.4,8.3
					c0,3.4-4.6,7.8-16,7.8c-8.1,0-16.3-1.7-18.8-7.5l-9.8,4.1c4,8.9,14.6,13.5,27,13.5c24.6,0,29.4-11.7,29.4-18.4
					C102.1,256.5,91.1,253.3,80.1,251.4"/>
				<path class="st0" d="M138.2,227.6c-14.5,0-31.7,7.3-31.7,28.6c0,21.2,15.5,29.4,31.7,29.4c16.3,0,31.7-8.2,31.7-29.4
					C169.9,234.9,152.7,227.6,138.2,227.6 M138.2,275.7c-8.9,0-20.7-3.9-20.7-19.3c0-15.7,13-18.9,20.7-18.9
					c7.6,0,20.7,3.2,20.7,18.9C158.9,271.9,147.1,275.7,138.2,275.7z"/>
				<path class="st0" d="M468.9,238.2v-9.6c-10.7-1-18.3,1.6-24.1,7.7l-0.6-7.8h-10.3v56.9h10.9v-29.5
					C444.8,247.7,451.4,237.2,468.9,238.2"/>
			</g>
		</g>
	</g>
</g>
</svg>
